<svg xmlns="http://www.w3.org/2000/svg" width="45.837" height="48" viewBox="0 0 45.837 48">
  <g>
    <path d="M28.226,11.075s2.835-3.659,9.9-2.99c0,0-3.533-4.106-11.269-1.337C25.523.827,18.838,0,18.838,0s3.629,3.5,3.629,8.214c-6.3-5.6-13.751.349-13.751.349,8.212-1.623,11.666,2.956,11.666,2.956l4.091,5.421Z" fill="#3daa9d"/>
    <path d="M44.939,20.862C42.7,13.957,36.683,10.511,31.7,10.644c-3.442.092-6.269,3.7-8.465,2.4A14.984,14.984,0,0,0,4.845,15.284,15.96,15.96,0,0,0,0,26.8,19.326,19.326,0,0,0,3.038,36.966C29,40.1,40.557,27.817,44.939,20.862Z" fill="#f87670"/>
    <path d="M3.038,36.967A23.616,23.616,0,0,0,22.919,48c12.658,0,22.918-10.336,22.918-21.2a19.175,19.175,0,0,0-.9-5.938C40.557,27.817,29,40.1,3.038,36.967Z" fill="#db5743"/>
  </g>
</svg>
